# xmcd CD database file
#
# Track frame offsets:
#	150
#	15763
#	35822
#	54611
#	72462
#	92194
#	105380
#	122042
#	142148
#	156903
#	174209
#	191572
#	206257
#
# Disc length: 3010 seconds
#
# Revision: 0
# Processed by: cddbd v1.5.2PL0 Copyright (c) Steve Scherf et al.
# Submitted via: CDex 1.70beta2
#
DISCID=b00bc00d
DTITLE=rascal flatts  - feels like today 
DYEAR=1900
DGENRE=Country
TTITLE0=Rascal Flatts - Today
TTITLE1=Rascal Flatts - Fast Cars And Freedom
TTITLE2=Rascal Flatts - The Day Before You
TTITLE3=Rascal Flatts - Where You Are
TTITLE4=Rascal Flatts - Holes
TTITLE5=Rascal Flatts - Oklahoma
TTITLE6=Rascal Flatts - Here's To You
TTITLE7=Rascal Flatts - Skin
TTITLE8=Rascal Flatts - Then I Did
TTITLE9=Rascal Flatts - When The Sand Runs Out
TTITLE10=Rascal Flatts - Bless The Broken Road
TTITLE11=Rascal Flatts - Break Away
TTITLE12=Rascal Flatts - Sara Beth
EXTD=
EXTT0=
EXTT1=
EXTT2=
EXTT3=
EXTT4=
EXTT5=
EXTT6=
EXTT7=
EXTT8=
EXTT9=
EXTT10=
EXTT11=
EXTT12=
PLAYORDER=
